<svg width="56" height="56" viewBox="0 0 56 56" fill="none" xmlns="http://www.w3.org/2000/svg">
<circle cx="28" cy="28" r="28" fill="#FED1A7"/>
<path d="M39.1882 34.478C39.2356 34.8419 39.1248 35.1582 38.8562 35.4271L35.7023 38.5592C35.56 38.7174 35.3743 38.852 35.1451 38.9626C34.9158 39.0734 34.6906 39.1446 34.4694 39.1762C34.4535 39.1762 34.406 39.1802 34.3269 39.1881C34.248 39.196 34.1452 39.2 34.0188 39.2C33.7183 39.2 33.2322 39.1486 32.5603 39.0458C31.8884 38.9429 31.0664 38.6898 30.0942 38.2865C29.1218 37.8831 28.0192 37.2779 26.7861 36.4712C25.5531 35.6645 24.2409 34.5571 22.8497 33.1492C21.7431 32.0576 20.8262 31.0136 20.099 30.017C19.3718 29.0204 18.7868 28.0989 18.3442 27.2526C17.9015 26.4062 17.5695 25.639 17.3482 24.9509C17.1269 24.2627 16.9767 23.6695 16.8976 23.1712C16.8186 22.6729 16.787 22.2814 16.8028 21.9967C16.8186 21.7119 16.8265 21.5537 16.8265 21.5221C16.8581 21.3006 16.9293 21.0752 17.0399 20.8458C17.1506 20.6164 17.285 20.4306 17.443 20.2882L20.5969 17.1323C20.8182 16.9108 21.0712 16.8 21.3557 16.8C21.5613 16.8 21.7431 16.8594 21.9011 16.978C22.0592 17.0967 22.1936 17.243 22.3043 17.417L24.8416 22.2339C24.9839 22.487 25.0234 22.7639 24.9602 23.0644C24.8969 23.365 24.7625 23.6181 24.557 23.8238L23.3951 24.9865C23.3635 25.0181 23.3358 25.0695 23.3121 25.1407C23.2884 25.2119 23.2765 25.2712 23.2765 25.3187C23.3398 25.6509 23.482 26.0305 23.7034 26.4577C23.8931 26.8373 24.1855 27.3 24.5807 27.8458C24.976 28.3916 25.5372 29.0203 26.2644 29.7322C26.9758 30.46 27.6081 31.0254 28.1615 31.4289C28.7147 31.8321 29.1772 32.1288 29.5487 32.3187C29.9202 32.5085 30.2048 32.6232 30.4024 32.6626L30.6987 32.722C30.7303 32.722 30.7818 32.7101 30.8529 32.6864C30.924 32.6626 30.9754 32.635 31.0071 32.6033L32.3587 31.227C32.6434 30.974 32.9752 30.8474 33.3547 30.8474C33.6235 30.8474 33.8368 30.8948 33.9949 30.9898H34.0186L38.5952 33.6949C38.9273 33.9007 39.1249 34.1616 39.1882 34.478Z" fill="#55473D"/>
</svg>
